<?xml version="1.0" standalone="no"?>
<!DOCTYPE svg PUBLIC "-//W3C//DTD SVG 1.1//EN" "http://www.w3.org/Graphics/SVG/1.1/DTD/svg11.dtd" >
<svg xmlns="http://www.w3.org/2000/svg">
<metadata>Generated by IcoMoon</metadata>
<defs>
<font id="icomoon" horiz-adv-x="1024">
<font-face units-per-em="1024" ascent="960" descent="-64" />
<missing-glyph horiz-adv-x="1024" />
<glyph unicode="&#x20;" horiz-adv-x="512" d="" />
<glyph unicode="&#xe900;" glyph-name="about" d="M511.087 838.604c214.434 0 388.267-173.833 388.267-388.267s-173.833-388.267-388.267-388.267c-214.434 0-388.267 173.833-388.267 388.267s173.833 388.267 388.267 388.267zM511.087 787.404c-186.157 0-337.067-150.91-337.067-337.067s150.91-337.067 337.067-337.067c186.157 0 337.067 150.91 337.067 337.067s-150.91 337.067-337.067 337.067zM498.611 332.070c12 0 21.167-3.292 27.5-9.875s9.5-15.875 9.5-27.875c0-11.833-3.208-21.208-9.625-28.125s-15.542-10.375-27.375-10.375c-11.833 0-20.917 3.375-27.25 10.125s-9.5 16.208-9.5 28.375c0 25.167 12.25 37.75 36.75 37.75zM514.111 633.82c32.667 0 58.583-8 77.75-24s28.75-38.083 28.75-66.25c0-12.5-1.833-23.625-5.5-33.375s-9.208-19.042-16.625-27.875c-6.357-7.571-16.663-17.102-30.918-28.592l-7.457-5.908c-15.5-12.167-25.875-22.25-31.125-30.25-4.375-6.667-6.927-15.243-7.656-25.729l-0.219-6.521v-11.25h-49v16l0.278 8.91c0.926 14.421 4.167 26.701 9.722 36.84 5.714 10.429 15.102 21.163 28.163 32.204l6.837 5.546c19.833 15.667 32.625 27.833 38.375 36.5s8.625 19 8.625 31c0 14-4.667 24.75-14 32.25s-22.75 11.25-40.25 11.25c-15.833 0-30.5-2.25-44-6.75-9-3-17.852-6.407-26.556-10.222l-12.944-6.028-21 44 11.367 5.929c30.551 14.881 63.012 22.321 97.383 22.321z" />
<glyph unicode="&#xe901;" glyph-name="actions" d="M296.578 534.578c35.346 0 64-28.654 64-64s-28.654-64-64-64c-35.346 0-64 28.654-64 64s28.654 64 64 64zM509.912 534.578c35.346 0 64-28.654 64-64s-28.654-64-64-64c-35.346 0-64 28.654-64 64s28.654 64 64 64zM723.245 534.578c35.346 0 64-28.654 64-64s-28.654-64-64-64c-35.346 0-64 28.654-64 64s28.654 64 64 64z" />
<glyph unicode="&#xe902;" glyph-name="add" d="M512.888 835.379c214.434 0 388.267-173.833 388.267-388.267s-173.833-388.267-388.267-388.267c-214.434 0-388.267 173.833-388.267 388.267s173.833 388.267 388.267 388.267zM512.888 784.179c-186.157 0-337.067-150.91-337.067-337.067s150.91-337.067 337.067-337.067c186.157 0 337.067 150.91 337.067 337.067s-150.91 337.067-337.067 337.067zM534.958 642.822l-0.011-171.945 171.982-0.026v-51.2l-171.982 0.026 0.011-171.997h-51.2l-0.011 171.997-171.96-0.026v51.2l171.96 0.026 0.011 171.945h51.2z" />
<glyph unicode="&#xe903;" glyph-name="arrow" d="M487.435 679.435l-231.435-231.435 231.435-231.435 36.204 36.204-169.606 169.643 415.275-0.011v51.2l-415.275 0.011 169.606 169.62z" />
<glyph unicode="&#xe904;" glyph-name="cancel" d="M787.434 721.658c151.628-151.628 151.628-397.464 0-549.092s-397.464-151.628-549.092 0c-151.628 151.628-151.628 397.464 0 549.092s397.464 151.628 549.092 0zM731.033 190.131l-475.125 475.125c-112.67-132.432-106.457-331.391 18.638-456.487s324.054-131.308 456.487-18.638zM751.23 685.454c-125.988 125.988-326.898 131.391-459.312 16.208l475.52-475.52c115.183 132.414 109.78 333.324-16.208 459.312z" />
<glyph unicode="&#xe905;" glyph-name="check" d="M318.373 463.072l-39.412-32.683 122.379-147.575 341.415 317.095-34.843 37.515-301.732-280.238z" />
<glyph unicode="&#xe906;" glyph-name="chevron" d="M347.153 581.82l-36.204-36.204 231.435-231.435 231.435 231.435-36.204 36.204-195.231-195.231z" />
<glyph unicode="&#xe907;" glyph-name="chevron-top" d="M640 679.435l36.204-36.204-195.231-195.231 195.231-195.231-36.204-36.204-230.144 230.124 0.328-240.852-51.2-0.063-0.584 472.258 51.2 0.063 0.256-228.761 230.144 230.101z" />
<glyph unicode="&#xe908;" glyph-name="clock" d="M512 814.933c202.652 0 366.933-164.282 366.933-366.933s-164.282-366.933-366.933-366.933c-202.652 0-366.933 164.282-366.933 366.933s164.282 366.933 366.933 366.933zM512 763.733c-174.375 0-315.733-141.359-315.733-315.733s141.359-315.733 315.733-315.733c174.375 0 315.733 141.359 315.733 315.733s-141.359 315.733-315.733 315.733zM537.6 661.005v-229.603l157.663-89.116-25.194-44.573-183.67 103.815v259.476h51.2z" />
<glyph unicode="&#xe909;" glyph-name="condense" d="M711.954 470.851h-400.167v-51.2h400.167zM810.667 814.933h-597.333c-37.703 0-68.267-30.564-68.267-68.267v-597.333c0-37.703 30.564-68.267 68.267-68.267h597.333c37.703 0 68.267 30.564 68.267 68.267v597.333c0 37.703-30.564 68.267-68.267 68.267zM213.333 763.733h597.333c9.426 0 17.067-7.641 17.067-17.067v-597.333c0-9.426-7.641-17.067-17.067-17.067h-597.333c-9.426 0-17.067 7.641-17.067 17.067v597.333c0 9.426 7.641 17.067 17.067 17.067z" />
<glyph unicode="&#xe90a;" glyph-name="cross" d="M749.898 722.102l36.204-36.204-237.932-237.887 237.932-237.909-36.204-36.204-237.909 237.932-237.887-237.932-36.204 36.204 237.909 237.909-237.909 237.887 36.204 36.204 237.887-237.909 237.909 237.909z" />
<glyph unicode="&#xe90b;" glyph-name="delete" d="M812.565 720.569v-51.2l-32.256 0.042-48.678-578.403h-440.262l-37.524 578.403-38.613-0.042v51.2h597.333zM728.895 669.411h-423.765l34.225-527.203 54.351 0.013-17.244 288.208 51.108 3.067 17.464-291.275h42.581l0.038 305.778h51.2l-0.038-305.778h44.843l19.338 289.707 51.086-3.409-19.139-286.297 49.617-0.013 44.335 527.203zM593.424 832.057c37.703 0 68.267-30.564 68.267-68.267v0-42.667h-51.2v42.667c0 9.426-7.641 17.067-17.067 17.067v0h-164.355c-9.426 0-17.067-7.641-17.067-17.067v0-42.667h-51.2v42.667c0 37.703 30.564 68.267 68.267 68.267v0z" />
<glyph unicode="&#xe90c;" glyph-name="download" d="M195.033 348.434v-175.527c0-8.247 5.85-15.129 13.627-16.72l3.44-0.347h597.333c8.247 0 15.129 5.85 16.72 13.627l0.347 3.44v175.527h51.2v-175.527c0-35.608-27.262-64.849-62.053-67.988l-6.214-0.279h-597.333c-35.608 0-64.849 27.262-67.988 62.053l-0.279 6.214v175.527h51.2zM537.020 789.333l-0.014-415.275 169.645 169.606 36.204-36.204-231.435-231.435-231.435 231.435 36.204 36.204 169.618-169.606 0.014 415.275h51.2z" />
<glyph unicode="&#xe90d;" glyph-name="drag" d="M318.528 256.928c-58.912 0-106.656-47.744-106.656-106.656s47.744-106.656 106.656-106.656c58.912 0 106.656 47.744 106.656 106.656s-47.744 106.656-106.656 106.656zM702.528 256.928c-58.912 0-106.656-47.744-106.656-106.656s47.744-106.656 106.656-106.656c58.912 0 106.656 47.744 106.656 106.656s-47.744 106.656-106.656 106.656zM318.528 555.584c-58.912 0-106.656-47.744-106.656-106.656s47.744-106.656 106.656-106.656c58.912 0 106.656 47.744 106.656 106.656s-47.744 106.656-106.656 106.656zM702.528 555.584c-58.912 0-106.656-47.744-106.656-106.656s47.744-106.656 106.656-106.656c58.912 0 106.656 47.744 106.656 106.656s-47.744 106.656-106.656 106.656zM318.528 854.272c-58.912 0-106.656-47.744-106.656-106.656s47.744-106.656 106.656-106.656c58.912 0 106.656 47.744 106.656 106.656s-47.744 106.656-106.656 106.656zM702.528 854.272c-58.912 0-106.656-47.744-106.656-106.656s47.744-106.656 106.656-106.656c58.912 0 106.656 47.744 106.656 106.656s-47.744 106.656-106.656 106.656z" />
<glyph unicode="&#xe90e;" glyph-name="edit" d="M204.269 333.11l-42.167-180.121c-4.512-19.273 7.454-38.554 26.727-43.066 5.374-1.258 10.965-1.258 16.339 0l180.121 42.167 522.056 522.056-181.019 181.019-522.056-522.056zM726.325 782.758l108.612-108.612-475.531-475.531-141.81-33.199 33.199 141.81 475.531 475.531zM226.734 205.733l36.204-36.204-32.828-32.828-36.204 36.204 32.828 32.828zM658.839 777.861l153.6-153.6-36.204-36.204-153.6 153.6 36.204 36.204zM692.022 675.883l-409.6-409.6 36.204-36.204 409.6 409.6z" />
<glyph unicode="&#xe90f;" glyph-name="error" d="M238.342 172.566c151.628-151.628 397.464-151.628 549.092 0s151.628 397.464 0 549.092c-151.628 151.628-397.464 151.628-549.092 0s-151.628-397.464 0-549.092zM274.546 208.77c-131.633 131.633-131.633 345.052 0 476.684s345.052 131.633 476.684 0c131.633-131.633 131.633-345.052 0-476.684s-345.052-131.633-476.684 0zM633.309 601.106l-279.408-279.408 36.204-36.204 279.408 279.408zM669.513 321.698l-279.408 279.408-36.204-36.204 279.408-279.408z" />
<glyph unicode="&#xe910;" glyph-name="excel" d="M537.6 847.738v-92.885l341.333-0.010v-605.867l-341.333 0.010v-93.285l-392.533 107.353v581.955l392.533 102.729zM486.4 781.44l-290.133-75.904v-503.381l290.133-79.36v658.645zM827.733 703.659h-290.133v-108.251l74.284-0.033v-51.2l-74.284 0.033v-76.8l74.284-0.033v-51.2l-74.284 0.033v-76.8l74.284-0.033v-51.2l-74.284 0.033v-88.016h290.133v503.467zM782.55 339.374v-51.2h-122.333v51.2h122.333zM293.102 565.572l45.159-66.25 49.674 64.231 40.51-31.311-59.848-77.379 54.542-79.922-42.296-28.852-45.142 66.193-48.373-62.621-40.51 31.311 58.547 75.812-54.56 79.937 42.296 28.852zM782.55 467.374v-51.2h-122.333v51.2h122.333zM782.55 595.374v-51.2h-122.333v51.2h122.333z" />
<glyph unicode="&#xe911;" glyph-name="expand" d="M810.667 814.933c37.703 0 68.267-30.564 68.267-68.267v-597.333c0-37.703-30.564-68.267-68.267-68.267h-597.333c-37.703 0-68.267 30.564-68.267 68.267v597.333c0 37.703 30.564 68.267 68.267 68.267h597.333zM810.667 763.733h-597.333c-9.426 0-17.067-7.641-17.067-17.067v-597.333c0-9.426 7.641-17.067 17.067-17.067h597.333c9.426 0 17.067 7.641 17.067 17.067v597.333c0 9.426-7.641 17.067-17.067 17.067zM537.47 645.335l-0.020-174.464 174.503-0.020v-51.2l-174.503 0.020 0.020-174.503h-51.2l-0.020 174.503-174.464-0.020v51.2l174.464 0.020 0.020 174.464h51.2z" />
<glyph unicode="&#xe912;" glyph-name="favorite-off" d="M481.391 785.158l-86.725-175.665-193.864-28.195c-7.429-1.079-14.294-4.578-19.534-9.953l-3.256-3.87c-9.743-13.488-8.399-32.435 3.873-44.398l140.248-136.73-33.073-193.122c-1.269-7.399-0.064-15.009 3.43-21.654l2.431-3.955c9.753-13.695 28.37-18.415 43.665-10.374l173.414 91.163 173.414-91.163c6.644-3.493 14.255-4.699 21.654-3.43l4.175 0.986c16.232 4.921 26.639 21.275 23.697 38.426l-33.115 193.122 140.291 136.73c5.375 5.24 8.874 12.105 9.953 19.534l0.359 4.275c0.329 16.958-12.009 31.909-29.229 34.412l-193.907 28.195-86.682 175.665c-3.322 6.732-8.771 12.18-15.502 15.502-16.905 8.343-37.372 1.402-45.715-15.502zM512 731.52l75.373-152.754 2.406-4.122c5.343-7.838 13.765-13.166 23.295-14.551l168.537-24.456-121.954-118.913-3.176-3.562c-5.803-7.504-8.268-17.16-6.64-26.651l28.773-167.845-150.73 79.238-4.369 1.92c-8.93 3.201-18.875 2.561-27.398-1.92l-150.772-79.238 28.816 167.845 0.476 4.748c0.285 9.482-3.397 18.743-10.293 25.464l-121.996 118.913 168.58 24.456c11.118 1.615 20.728 8.598 25.7 18.672l75.373 152.754z" />
<glyph unicode="&#xe913;" glyph-name="favorite-on" d="M481.391 785.158c8.343 16.905 28.81 23.845 45.715 15.502 6.732-3.322 12.18-8.771 15.502-15.502v0l86.682-175.665 193.907-28.195c17.22-2.502 29.559-17.453 29.229-34.412v0l-0.359-4.275c-1.079-7.429-4.578-14.294-9.953-19.534v0l-140.291-136.73 33.115-193.122c2.942-17.151-7.465-33.505-23.697-38.426v0l-4.175-0.986c-7.399-1.269-15.009-0.064-21.654 3.43v0l-173.414 91.163-173.414-91.163c-15.295-8.041-33.912-3.321-43.665 10.374v0l-2.431 3.955c-3.493 6.644-4.699 14.255-3.43 21.654v0l33.073 193.122-140.248 136.73c-12.272 11.962-13.616 30.909-3.873 44.398v0l3.256 3.87c5.24 5.375 12.105 8.874 19.534 9.953v0l193.864 28.195z" />
<glyph unicode="&#xe914;" glyph-name="filter" d="M406.277 446.716v-280.609l192.397 53.842v227.689l172.305 281.962h-564.385l199.683-282.884zM305.406 678.4h374.282l-132.214-216.356v-203.256l-89.997-25.186v229.363l-152.071 215.434z" />
<glyph unicode="&#xe915;" glyph-name="hamburger" d="M810.667 281.6v-51.2h-597.333v51.2h597.333zM810.667 494.933v-51.2h-597.333v51.2h597.333zM810.667 708.267v-51.2h-597.333v51.2h597.333z" />
<glyph unicode="&#xe916;" glyph-name="info" d="M511.087 838.604c214.434 0 388.267-173.833 388.267-388.267s-173.833-388.267-388.267-388.267c-214.434 0-388.267 173.833-388.267 388.267s173.833 388.267 388.267 388.267zM511.087 787.404c-186.157 0-337.067-150.91-337.067-337.067s150.91-337.067 337.067-337.067c186.157 0 337.067 150.91 337.067 337.067s-150.91 337.067-337.067 337.067zM557.192 541.713v-299.335h-51.2v248.135h-77.57v51.2h128.77zM515.096 668.094c23.564 0 42.667-19.103 42.667-42.667s-19.103-42.667-42.667-42.667c-23.564 0-42.667 19.103-42.667 42.667s19.103 42.667 42.667 42.667z" />
<glyph unicode="&#xe917;" glyph-name="language" d="M512 937.244c270.202 0 489.244-219.042 489.244-489.244s-219.042-489.244-489.244-489.244c-0.209 0-0.417 0-0.626 0l-3.566-1.826-0.924 1.852c-1.873 0.019-3.744 0.049-5.612 0.089l-0.963-1.941-4.082 2.075c-262.903 8.326-473.472 224.070-473.472 488.995 0 270.202 219.042 489.244 489.244 489.244zM931.787 416.094l-118.013 0.029c-8.328-143.721-72.648-275.305-174.909-369.639 160.788 50.75 279.868 195.399 292.922 369.609zM477.867 416.142l-215.125-0.005c10.020-151.258 90.913-286.743 215.092-368.063l0.033 368.068zM194.344 416.124l-102.131-0.029c12.36-164.936 119.756-303.374 267.595-360.72-96.766 93.649-157.395 221.502-165.464 360.75zM745.376 416.137l-199.243 0.005 0.063-357.183c115.151 82.219 189.595 212.481 199.18 357.178zM359.855 840.627l-5.651-2.221c-143.606-58.1-247.851-193.135-261.63-354.001l102.048-0.031c9.088 137.352 69.321 263.509 165.233 356.254zM263.062 484.378l214.805 0.031-0.031 363.502c-123.229-80.719-203.482-214.342-214.774-363.533zM546.196 837.024l-0.062-352.615 198.923-0.031c-10.798 142.668-84.66 271.101-198.861 352.646zM638.994 849.485l1.439-1.435c100.459-93.378 163.729-222.624 173.062-363.677l117.93 0.031c-14.746 172.157-133.103 314.73-292.432 365.080z" />
<glyph unicode="&#xe918;" glyph-name="loading" d="M835.838 873.211h-661.922l0.826-45.287c4.074-111.269 56.716-209.001 156.019-292.381l12.134-9.929 6.276-5.302c47.162-42.135 53.452-115.094 13.273-165.49-5.236-6.568-11.14-12.574-17.617-17.922-112.622-93-170.322-195.415-170.322-306.355v-32h661.333v32c0 110.94-57.7 213.355-170.322 306.355-6.477 5.348-12.381 11.354-17.617 17.922-41.781 52.405-33.169 128.758 19.236 170.539l12.132 9.921c103.791 87.144 156.572 189.606 156.572 305.929v32zM770.091 809.216l-0.309-3.627c-9.604-81.884-52.923-155.177-131.355-221.032l-11.503-9.407c-79.729-63.563-92.883-180.183-29.067-260.226 7.998-10.031 17.015-19.205 26.908-27.374l11.633-9.825c79.724-68.9 123.627-140.394 133.352-215.175h-529.195c10.226 78.335 57.925 153.077 145.023 225.001 9.892 8.169 18.91 17.343 26.908 27.374 61.377 76.984 51.771 188.4-21.361 253.711l-7.329 6.202-12.195 9.981-10.949 9.446c-71.407 63.324-111.102 133.658-120.143 211.754l-0.338 3.199h529.92z" />
<glyph unicode="&#xe919;" glyph-name="message" d="M837.328 657.918v-435.2h-648.533v435.2h648.533zM786.128 576.126l-273.143-188.168-272.991 171.741v-285.781h546.133v302.208zM740.261 606.718h-478.848l250.295-157.468 228.553 157.468z" />
<glyph unicode="&#xe91a;" glyph-name="new-tab" d="M259.99 664.731l-0.039-468.228 485.287-0.009v-51.2h-536.448v519.437h51.2zM569.967 765.975v-51.2h-209.067v-418.133h418.133v209.067h51.2v-260.267h-520.533v520.533h260.267zM826.236 765.975v-142.75h-51.2l-0.016 57.588-198.177-198.235-36.204 36.204 195.981 195.993h-59.986v51.2h149.602z" />
<glyph unicode="&#xe91b;" glyph-name="scoring" d="M781.776 774.882v-32c0-3.558-0.022-7.119-0.065-10.682l57.794 0.016c45.95 0 83.2-37.25 83.2-83.2 0-19.614-6.926-38.513-19.423-53.43l-4.945-5.4-165.324-165.268 0.021-151.368h-64l0.009 56.645c-34.095-45.855-75.116-77.060-121.938-86.007l-0.033-130.638h95.876v-64h-256v64h96.124l0.013 132.449c-51.809 12.957-97.060 53.375-133.638 110.171l-0.049-68.169h-64l0.037 118.259-179.154 202.009-4.775 5.907c-10.467 14.233-16.173 31.492-16.173 49.291 0 45.95 37.25 83.2 83.2 83.2v0l79.872 0.013 0.037 28.203h533.333zM717.099 710.912h-403.883l0.84-15.205c12.698-188.513 98.676-382.087 198.8-389.912v0l6.278-0.246c103.684 0 188.528 201.723 197.801 401.448v0l0.164 3.915zM250.7 682.674l-82.167-0.007-3.451-0.309c-8.957-1.626-15.749-9.465-15.749-18.891 0-4.694 1.72-9.226 4.834-12.738v0l129.012-145.486c-16.859 56.128-27.981 116.82-32.479 177.431zM839.505 668.216l-60.842-0.011c-3.584-43.216-10.219-86.016-19.681-126.876l94.1 94.112c3.601 3.601 5.623 8.484 5.623 13.576 0 9.426-6.792 17.265-15.749 18.891l-3.451 0.309z" />
<glyph unicode="&#xe91c;" glyph-name="search" d="M469.333 772.267c155.523 0 281.6-126.077 281.6-281.6 0-71.879-26.931-137.468-71.252-187.227l107.557-117.267-37.735-34.605-107.187 116.876c-47.734-37.21-107.769-59.377-172.982-59.377-155.523 0-281.6 126.077-281.6 281.6s126.077 281.6 281.6 281.6zM469.333 721.067c-127.246 0-230.4-103.154-230.4-230.4s103.154-230.4 230.4-230.4c127.246 0 230.4 103.154 230.4 230.4s-103.154 230.4-230.4 230.4z" />
<glyph unicode="&#xe91d;" glyph-name="spinner" d="M512 772.267c-179.088 0-324.267-145.179-324.267-324.267 0-86.374 33.957-167.447 93.411-227.716 60.527-61.357 142.931-96.551 230.856-96.551 179.088 0 324.267 145.179 324.267 324.267h-51.2c0-150.811-122.256-273.067-273.067-273.067-74.084 0-143.405 29.607-194.406 81.307-50.095 50.782-78.66 118.982-78.66 191.759 0 150.811 122.256 273.067 273.067 273.067v51.2z" />
<glyph unicode="&#xe91e;" glyph-name="success" d="M502.823 845.655c214.434 0 388.267-173.833 388.267-388.267s-173.833-388.267-388.267-388.267c-214.434 0-388.267 173.833-388.267 388.267s173.833 388.267 388.267 388.267zM502.823 794.455c-186.157 0-337.067-150.91-337.067-337.067s150.91-337.067 337.067-337.067c186.157 0 337.067 150.91 337.067 337.067s-150.91 337.067-337.067 337.067zM634.914 589.791l34.422-37.902-231.33-210.089-86.323 101.789 39.049 33.116 52.064-61.391 192.119 174.479z" />
<glyph unicode="&#xe91f;" glyph-name="warning" d="M511.676 845.503c214.434 0 388.267-173.833 388.267-388.267s-173.833-388.267-388.267-388.267c-214.434 0-388.267 173.833-388.267 388.267s173.833 388.267 388.267 388.267zM511.676 794.303c-186.157 0-337.067-150.91-337.067-337.067s150.91-337.067 337.067-337.067c186.157 0 337.067 150.91 337.067 337.067s-150.91 337.067-337.067 337.067zM511.902 326.601c23.564 0 42.667-19.103 42.667-42.667s-19.103-42.667-42.667-42.667c-23.564 0-42.667 19.103-42.667 42.667s19.103 42.667 42.667 42.667zM537.276 670.57v-298.667h-51.2v298.667h51.2z" />
<glyph unicode="&#xe920;" glyph-name="checklist" d="M588.8 917.333c4.713 0 8.533-3.821 8.533-8.533l-0.016-34.133h85.349l-0.016-38.229 174.805-0.027v-437.638h-51.2v386.438l-123.605 0.027 0.016-81.237h-341.333l-0.016 81.237-123.861-0.027v-759.211l333.312 3.756 0.572-51.197-385.084-4.302v862.154l175.061 0.027 0.016 38.229h85.318l0.016 34.133c0 4.713 3.821 8.533 8.533 8.533h153.6zM782.714 328.28v-51.2l-117.114-0.040v-204.8h204.8v102.44h51.2v-153.6h-307.2v307.2h168.314zM926.243 320l34.843-37.515-198.064-176.374-80.356 89.606 39.412 32.683 45.785-47.917 158.38 139.518zM512.373 190.829v-51.2h-213.006v51.2h213.006zM510.912 329.899v-51.2h-213.006v51.2h213.006zM724.058 476.177v-51.2h-426.011v51.2h426.011zM725.333 622.933v-51.2h-426.011v51.2h426.011z" />
<glyph unicode="&#xe921;" glyph-name="dollar" d="M884.751 579.877h-819.2v-392.533h819.2v392.533zM833.551 528.677v-290.133h-716.8v290.133h716.8zM475.151 537.211c-84.831 0-153.6-68.769-153.6-153.6s68.769-153.6 153.6-153.6c84.831 0 153.6 68.769 153.6 153.6s-68.769 153.6-153.6 153.6zM475.151 486.011c56.554 0 102.4-45.846 102.4-102.4s-45.846-102.4-102.4-102.4c-56.554 0-102.4 45.846-102.4 102.4s45.846 102.4 102.4 102.4zM261.817 383.611c0-23.564-19.103-42.667-42.667-42.667s-42.667 19.103-42.667 42.667c0 23.564 19.103 42.667 42.667 42.667s42.667-19.103 42.667-42.667zM773.817 383.611c0-23.564-19.103-42.667-42.667-42.667s-42.667 19.103-42.667 42.667c0 23.564 19.103 42.667 42.667 42.667s42.667-19.103 42.667-42.667zM765.619 551.979l92.937-102.89v102.89zM92.549 459.341l102.89 92.937h-102.89zM185.531 211.611l-92.937 102.89v-102.89zM858.602 304.248l-102.89-92.937h102.89zM962.898 660.296v-429.915h-51.2l-0.020 378.757-795.804-0.042v51.2z" />
<glyph unicode="&#xe922;" glyph-name="euro" d="M516.267 832c214.434 0 388.267-173.833 388.267-388.267s-173.833-388.267-388.267-388.267c-214.434 0-388.267 173.833-388.267 388.267s173.833 388.267 388.267 388.267zM516.267 780.8c-186.157 0-337.067-150.91-337.067-337.067s150.91-337.067 337.067-337.067c186.157 0 337.067 150.91 337.067 337.067s-150.91 337.067-337.067 337.067zM604.231 661.485v-95.977h-51.2l0.012 44.767-28.335 0.011c-68.084 0-126.671-40.661-152.802-99.025l130.534-0.040v-51.2l-144.207-0.003c-0.284-2.799-0.498-5.618-0.642-8.456l-0.218-8.611v-6.57c0-3.668 0.123-7.306 0.365-10.913l144.702 0.019v-51.2l-132.622-0.035c23.289-55.532 76.854-95.224 140.047-98.427l8.273-0.209 34.905-0.019-0.012 42.099h51.2v-93.28h-86.092c-113.984 0-206.955 89.971-211.769 202.77l-0.196 9.195v6.57c0 117.599 92.888 213.502 209.297 218.343l9.238 0.192h79.522z" />
<glyph unicode="&#xe923;" glyph-name="user-ok" d="M501.795 406.524c52.553 0 91.169-7.853 115.848-23.56v0l-20.816-46.784c-41.090 12.763-72.767 19.144-95.033 19.144-127.572 0-230.4-96.947-230.4-215.759v0h-51.2c0 147.786 126.406 266.959 281.6 266.959zM501.795 769.058c84.831 0 153.6-68.769 153.6-153.6s-68.769-153.6-153.6-153.6c-84.831 0-153.6 68.769-153.6 153.6s68.769 153.6 153.6 153.6zM501.795 717.858c-56.554 0-102.4-45.846-102.4-102.4s45.846-102.4 102.4-102.4c56.554 0 102.4 45.846 102.4 102.4s-45.846 102.4-102.4 102.4zM551.412 228.4l-39.412-32.683 80.356-89.606 198.064 176.374-34.843 37.515-158.38-139.518z" />
</font>
</defs>
</svg>
