<?xml version="1.0" encoding="UTF-8"?>
<svg width="24px" height="24px" viewBox="0 0 24 24" version="1.1" xmlns="http://www.w3.org/2000/svg" xmlns:xlink="http://www.w3.org/1999/xlink">
    <title>Icons/Cyan/about Copy</title>
    <g id="Icons/Cyan/about-Copy" stroke="none" stroke-width="1" fill="none" fill-rule="evenodd">
        <path d="M11.9786128,2.8452158 C17.004404,2.8452158 21.0786128,6.91942458 21.0786128,11.9452158 C21.0786128,16.971007 17.004404,21.0452158 11.9786128,21.0452158 C6.95282156,21.0452158 2.87861278,16.971007 2.87861278,11.9452158 C2.87861278,6.91942458 6.95282156,2.8452158 11.9786128,2.8452158 Z M11.9786128,4.0452158 C7.61556326,4.0452158 4.07861278,7.58216628 4.07861278,11.9452158 C4.07861278,16.3082653 7.61556326,19.8452158 11.9786128,19.8452158 C16.3416623,19.8452158 19.8786128,16.3082653 19.8786128,11.9452158 C19.8786128,7.58216628 16.3416623,4.0452158 11.9786128,4.0452158 Z M11.6861977,14.7171024 C11.9674477,14.7171024 12.1822915,14.7942508 12.330729,14.9485477 C12.4791665,15.1028446 12.5533852,15.320618 12.5533852,15.601868 C12.5533852,15.8792117 12.4781899,16.0989383 12.3277993,16.2610477 C12.1774087,16.4231571 11.9635415,16.5042117 11.6861977,16.5042117 C11.408854,16.5042117 11.1959634,16.4251102 11.0475259,16.2669071 C10.8990884,16.1087039 10.8248696,15.8870242 10.8248696,15.601868 C10.8248696,15.0120242 11.111979,14.7171024 11.6861977,14.7171024 Z M12.049479,7.64483674 C12.815104,7.64483674 13.4225259,7.83233674 13.8717446,8.20733674 C14.3209634,8.58233674 14.5455727,9.09991487 14.5455727,9.76007112 C14.5455727,10.0530399 14.502604,10.3137821 14.4166665,10.5422977 C14.330729,10.7708133 14.2008462,10.9885867 14.027018,11.195618 C13.8780225,11.3730733 13.6364728,11.5964471 13.3023688,11.8657392 L13.127604,12.0042117 C12.7643227,12.289368 12.5211587,12.5256961 12.3981118,12.7131961 C12.2955727,12.8694461 12.2357583,13.0704552 12.2186684,13.3162235 L12.2135415,13.4690555 L12.2135415,13.7327274 L11.065104,13.7327274 L11.065104,13.3577274 L11.0716144,13.1489058 C11.0933158,12.8109066 11.1692707,12.5230919 11.299479,12.2854617 C11.4334076,12.0410421 11.6534331,11.7894477 11.9595555,11.5306786 L12.1197915,11.4006961 C12.5846352,11.0335086 12.8844399,10.7483524 13.0192055,10.5452274 C13.1539712,10.3421024 13.221354,10.0999149 13.221354,9.81866487 C13.221354,9.49053987 13.111979,9.23858674 12.893229,9.06280549 C12.674479,8.88702424 12.3600259,8.79913362 11.9498696,8.79913362 C11.5787759,8.79913362 11.2350259,8.85186799 10.9186196,8.95733674 C10.7076821,9.02764924 10.5002168,9.10751035 10.2962238,9.19692007 L9.99283836,9.33819612 L9.50065086,8.30694612 L9.76707158,8.16798489 C10.483121,7.81921946 11.2439234,7.64483674 12.049479,7.64483674 Z" id="Shape" fill="#425968" fill-rule="nonzero"></path>
    </g>
</svg>