<?xml version="1.0" encoding="UTF-8"?>
<svg width="24px" height="24px" viewBox="0 0 24 24" version="1.1" xmlns="http://www.w3.org/2000/svg" xmlns:xlink="http://www.w3.org/1999/xlink">
    <title>Icons/Black/actions-table</title>
    <g id="Icons/Black/actions-table" stroke="none" stroke-width="1" fill="none" fill-rule="evenodd">
        <path d="M6.95105844,9.97083278 C7.77948556,9.97083278 8.45105844,10.6424057 8.45105844,11.4708328 C8.45105844,12.2992599 7.77948556,12.9708328 6.95105844,12.9708328 C6.12263132,12.9708328 5.45105844,12.2992599 5.45105844,11.4708328 C5.45105844,10.6424057 6.12263132,9.97083278 6.95105844,9.97083278 Z M11.9510584,9.97083278 C12.7794856,9.97083278 13.4510584,10.6424057 13.4510584,11.4708328 C13.4510584,12.2992599 12.7794856,12.9708328 11.9510584,12.9708328 C11.1226313,12.9708328 10.4510584,12.2992599 10.4510584,11.4708328 C10.4510584,10.6424057 11.1226313,9.97083278 11.9510584,9.97083278 Z M16.9510584,9.97083278 C17.7794856,9.97083278 18.4510584,10.6424057 18.4510584,11.4708328 C18.4510584,12.2992599 17.7794856,12.9708328 16.9510584,12.9708328 C16.1226313,12.9708328 15.4510584,12.2992599 15.4510584,11.4708328 C15.4510584,10.6424057 16.1226313,9.97083278 16.9510584,9.97083278 Z" id="Combined-Shape" fill="#425968"></path>
    </g>
</svg>