<?xml version="1.0" encoding="UTF-8"?>
<svg width="24px" height="24px" viewBox="0 0 24 24" version="1.1" xmlns="http://www.w3.org/2000/svg" xmlns:xlink="http://www.w3.org/1999/xlink">
    <!-- Generator: Sketch 60 (88103) - https://sketch.com -->
    <title>Icons/Black/add</title>
    <desc>Created with Sketch.</desc>
    <g id="Icons/Black/add" stroke="none" stroke-width="1" fill="none" fill-rule="evenodd">
        <path d="M12.0208153,2.92081528 C17.0466065,2.92081528 21.1208153,6.99502406 21.1208153,12.0208153 C21.1208153,17.0466065 17.0466065,21.1208153 12.0208153,21.1208153 C6.99502406,21.1208153 2.92081528,17.0466065 2.92081528,12.0208153 C2.92081528,6.99502406 6.99502406,2.92081528 12.0208153,2.92081528 Z M12.0208153,4.12081528 C7.65776576,4.12081528 4.12081528,7.65776576 4.12081528,12.0208153 C4.12081528,16.3838648 7.65776576,19.9208153 12.0208153,19.9208153 C16.3838648,19.9208153 19.9208153,16.3838648 19.9208153,12.0208153 C19.9208153,7.65776576 16.3838648,4.12081528 12.0208153,4.12081528 Z M12.5380693,7.43385199 L12.5378153,11.4638153 L16.5686451,11.4644278 L16.5686451,12.6644278 L12.5378153,12.6638153 L12.5380693,16.6950036 L11.3380693,16.6950036 L11.3378153,12.6638153 L7.30749343,12.6644278 L7.30749343,11.4644278 L11.3378153,11.4638153 L11.3380693,7.43385199 L12.5380693,7.43385199 Z" id="Combined-Shape" fill="#425968" fill-rule="nonzero"></path>
    </g>
</svg>