<?xml version="1.0" encoding="UTF-8"?>
<svg width="24px" height="24px" viewBox="0 0 24 24" version="1.1" xmlns="http://www.w3.org/2000/svg" xmlns:xlink="http://www.w3.org/1999/xlink">
    <title>Icons/Black/cancel</title>
    <g id="Icons/Black/cancel" stroke="none" stroke-width="1" fill="none" fill-rule="evenodd">
        <path d="M18.455487,5.58614357 C22.009258,9.13991463 22.009258,14.9017159 18.455487,18.455487 C14.9017159,22.009258 9.13991463,22.009258 5.58614357,18.455487 C2.03237252,14.9017159 2.03237252,9.13991463 5.58614357,5.58614357 C9.13991463,2.03237252 14.9017159,2.03237252 18.455487,5.58614357 Z M17.1335758,18.0437979 L5.99783268,6.90805473 C3.35713957,10.0119319 3.50275259,14.6750397 6.43467171,17.6069589 C9.36659083,20.538878 14.0296986,20.684491 17.1335758,18.0437979 Z M17.6069589,6.43467171 C14.6541129,3.48182577 9.9452771,3.35520287 6.84183169,6.05480302 L17.9868275,17.1997989 C20.6864277,14.0963535 20.5598048,9.38751765 17.6069589,6.43467171 Z" id="Shape" fill="#425968" fill-rule="nonzero"></path>
    </g>
</svg>