<?xml version="1.0" encoding="UTF-8"?>
<svg width="24px" height="24px" viewBox="0 0 24 24" version="1.1" xmlns="http://www.w3.org/2000/svg" xmlns:xlink="http://www.w3.org/1999/xlink">
    <title>Fobos/Icons/Black/prepurchase-checks/S</title>
    <g id="Fobos/Icons/Black/prepurchase-checks/S" stroke="none" stroke-width="1" fill="none" fill-rule="evenodd">
        <path d="M13.8,1 C13.9104569,1 14,1.08954305 14,1.2 L13.9996295,2 L16,2 L15.9996295,2.896 L20.0966295,2.89662948 L20.0966295,13.153773 L18.8966295,13.153773 L18.8966295,4.09662948 L15.9996295,4.096 L16,6 L8,6 L7.99962948,4.096 L5.09662948,4.09662948 L5.09662948,21.8906295 L12.9086281,21.8026076 L12.9220344,23.0025327 L3.89662948,23.1033705 L3.89662948,2.89662948 L7.99962948,2.896 L8,2 L9.99962948,2 L10,1.2 C10,1.08954305 10.0895431,1 10.2,1 L13.8,1 Z M18.3448681,14.8059406 L18.3448681,16.0059406 L15.6,16.0068813 L15.6,20.8068813 L20.4,20.8068813 L20.4,18.4059406 L21.6,18.4059406 L21.6,22.0059406 L14.4,22.0059406 L14.4,14.8059406 L18.3448681,14.8059406 Z M21.708831,15 L22.5254644,15.8792667 L17.8833438,20.013034 L16,17.9128868 L16.9237112,17.1468857 L17.9967881,18.2699422 L21.708831,15 Z M12.0087347,18.027441 L12.0087347,19.227441 L7.01641768,19.227441 L7.01641768,18.027441 L12.0087347,18.027441 Z M11.9744927,14.7680027 L11.9744927,15.9680027 L6.98217564,15.9680027 L6.98217564,14.7680027 L11.9744927,14.7680027 Z M16.9701182,11.3395997 L16.9701182,12.5395997 L6.98548413,12.5395997 L6.98548413,11.3395997 L16.9701182,11.3395997 Z M17,7.9 L17,9.1 L7.01536597,9.1 L7.01536597,7.9 L17,7.9 Z" id="Combined-Shape" fill="#425968" fill-rule="nonzero"></path>
    </g>
</svg>