<?xml version="1.0" encoding="UTF-8"?>
<svg width="24px" height="24px" viewBox="0 0 24 24" version="1.1" xmlns="http://www.w3.org/2000/svg" xmlns:xlink="http://www.w3.org/1999/xlink">
    <!-- Generator: Sketch 57.1 (83088) - https://sketch.com -->
    <title>Icons/Black/Clock</title>
    <desc>Created with Sketch.</desc>
    <g id="Icons/Black/Clock" stroke="none" stroke-width="1" fill="none" fill-rule="evenodd">
        <path d="M12,3.4 C16.7496488,3.4 20.6,7.25035115 20.6,12 C20.6,16.7496488 16.7496488,20.6 12,20.6 C7.25035115,20.6 3.4,16.7496488 3.4,12 C3.4,7.25035115 7.25035115,3.4 12,3.4 Z M12,4.6 C7.91309285,4.6 4.6,7.91309285 4.6,12 C4.6,16.0869071 7.91309285,19.4 12,19.4 C16.0869071,19.4 19.4,16.0869071 19.4,12 C19.4,7.91309285 16.0869071,4.6 12,4.6 Z M12.6,7.00770559 L12.6,12.3890178 L16.295238,14.4776643 L15.704762,15.5223357 L11.4,13.0891699 L11.4,7.00770559 L12.6,7.00770559 Z" id="Combined-Shape" fill="#425968" fill-rule="nonzero"></path>
    </g>
</svg>