<?xml version="1.0" encoding="UTF-8"?>
<svg width="24px" height="24px" viewBox="0 0 24 24" version="1.1" xmlns="http://www.w3.org/2000/svg" xmlns:xlink="http://www.w3.org/1999/xlink">
    <!-- Generator: Sketch 60 (88103) - https://sketch.com -->
    <title>Icons/Black/delete</title>
    <desc>Created with Sketch.</desc>
    <g id="Icons/Black/delete" stroke="none" stroke-width="1" fill="none" fill-rule="evenodd">
        <path d="M19.044487,5.61166259 L19.044487,6.81166259 L18.288487,6.81067423 L17.1475884,20.366987 L6.82895903,20.366987 L5.949487,6.81067423 L5.044487,6.81166259 L5.044487,5.61166259 L19.044487,5.61166259 Z M17.083487,6.81067423 L7.151487,6.81067423 L7.95364448,19.166987 L9.227487,19.1666742 L8.82333453,12.4117997 L10.0211799,12.3399217 L10.430487,19.1666742 L11.428487,19.1666742 L11.4293699,12 L12.6293699,12 L12.628487,19.1666742 L13.679487,19.1666742 L14.1327204,12.3766705 L15.3300568,12.4565806 L14.881487,19.1666742 L16.0443885,19.166987 L17.083487,6.81067423 Z M13.9083804,2.99867423 C14.792036,2.99867423 15.5083804,3.71501863 15.5083804,4.59867423 L15.5083804,4.59867423 L15.5083804,5.59867423 L14.3083804,5.59867423 L14.3083804,4.59867423 C14.3083804,4.37776033 14.1292943,4.19867423 13.9083804,4.19867423 L13.9083804,4.19867423 L10.0563018,4.19867423 C9.83538792,4.19867423 9.65630182,4.37776033 9.65630182,4.59867423 L9.65630182,4.59867423 L9.65630182,5.59867423 L8.45630182,5.59867423 L8.45630182,4.59867423 C8.45630182,3.71501863 9.17264622,2.99867423 10.0563018,2.99867423 L10.0563018,2.99867423 Z" id="Combined-Shape" fill="#425968" fill-rule="nonzero"></path>
    </g>
</svg>