<?xml version="1.0" encoding="UTF-8"?>
<svg width="24px" height="24px" viewBox="0 0 24 24" version="1.1" xmlns="http://www.w3.org/2000/svg" xmlns:xlink="http://www.w3.org/1999/xlink">
    <title>Icons/Black/purchase</title>
    <g id="Icons/Black/purchase" stroke="none" stroke-width="1" fill="none" fill-rule="evenodd">
        <path d="M20.7363429,8.90912696 L1.53634288,8.90912696 L1.53634288,18.109127 L20.7363429,18.109127 L20.7363429,8.90912696 Z M19.5363429,10.109127 L19.5363429,16.909127 L2.73634288,16.909127 L2.73634288,10.109127 L19.5363429,10.109127 Z" id="Rectangle" fill="#425968" fill-rule="nonzero"></path>
        <path d="M11.1363429,9.90912696 C9.14811778,9.90912696 7.53634288,11.5209019 7.53634288,13.509127 C7.53634288,15.4973521 9.14811778,17.109127 11.1363429,17.109127 C13.124568,17.109127 14.7363429,15.4973521 14.7363429,13.509127 C14.7363429,11.5209019 13.124568,9.90912696 11.1363429,9.90912696 Z M11.1363429,11.109127 C12.4618263,11.109127 13.5363429,12.1836436 13.5363429,13.509127 C13.5363429,14.8346104 12.4618263,15.909127 11.1363429,15.909127 C9.81085948,15.909127 8.73634288,14.8346104 8.73634288,13.509127 C8.73634288,12.1836436 9.81085948,11.109127 11.1363429,11.109127 Z" id="Oval" fill="#425968" fill-rule="nonzero"></path>
        <circle id="Oval" fill="#425968" cx="5.13634288" cy="13.509127" r="1"></circle>
        <circle id="Oval" fill="#425968" cx="17.1363429" cy="13.509127" r="1"></circle>
        <polygon id="Path-96" fill="#425968" transform="translate(19.033309, 10.768742) rotate(-270.000000) translate(-19.033309, -10.768742) " points="17.8275682 11.8578456 20.239049 9.67963867 17.8275682 9.67963867"></polygon>
        <polygon id="Path-96" fill="#425968" points="2.16910608 11.734185 4.58058693 9.55597809 2.16910608 9.55597809"></polygon>
        <polygon id="Path-96" fill="#425968" transform="translate(3.259283, 16.334634) rotate(-90.000000) translate(-3.259283, -16.334634) " points="2.05354247 17.4237375 4.46502333 15.2455305 2.05354247 15.2455305"></polygon>
        <polygon id="Path-96" fill="#425968" transform="translate(18.917745, 16.458295) rotate(-180.000000) translate(-18.917745, -16.458295) " points="17.7120046 17.547398 20.1234854 15.3691911 17.7120046 15.3691911"></polygon>
        <polygon id="Path-100" fill="#425968" fill-rule="nonzero" points="22.5679164 7.02430562 22.5679164 17.1004477 21.3679164 17.1004477 21.36744 8.22332069 2.71578284 8.22430562 2.71578284 7.02430562"></polygon>
    </g>
</svg>