<?xml version="1.0" encoding="UTF-8"?>
<svg width="24px" height="24px" viewBox="0 0 24 24" version="1.1" xmlns="http://www.w3.org/2000/svg" xmlns:xlink="http://www.w3.org/1999/xlink">
    <title>Icons/Black/Download</title>
    <g id="Icons/Black/Download" stroke="none" stroke-width="1" fill="none" fill-rule="evenodd">
        <path d="M4.57108218,14.3335867 L4.57108218,18.4475104 C4.57108218,18.6408101 4.70819498,18.8020853 4.89046823,18.8393838 L4.97108218,18.8475104 L18.9710822,18.8475104 C19.1643818,18.8475104 19.3256571,18.7103976 19.3629556,18.5281244 L19.3710822,18.4475104 L19.3710822,14.3335867 L20.5710822,14.3335867 L20.5710822,18.4475104 C20.5710822,19.282074 19.9321207,19.9674002 19.1167148,20.0409717 L18.9710822,20.0475104 L4.97108218,20.0475104 C4.13651856,20.0475104 3.4511924,19.4085489 3.37762086,18.593143 L3.37108218,18.4475104 L3.37108218,14.3335867 L4.57108218,14.3335867 Z M12.5864037,4 L12.5860822,13.733 L16.5621396,9.75785081 L17.4106678,10.606379 L11.9864037,16.030643 L6.56213962,10.606379 L7.41066776,9.75785081 L11.3860822,13.733 L11.3864037,4 L12.5864037,4 Z" id="Shape" fill="#425968" fill-rule="nonzero"></path>
    </g>
</svg>