<?xml version="1.0" encoding="UTF-8"?>
<svg width="24px" height="24px" viewBox="0 0 24 24" version="1.1" xmlns="http://www.w3.org/2000/svg" xmlns:xlink="http://www.w3.org/1999/xlink">
    <!-- Generator: Sketch 60 (88103) - https://sketch.com -->
    <title>Icons/Black/error</title>
    <desc>Created with Sketch.</desc>
    <g id="Icons/Black/error" stroke="none" stroke-width="1" fill="none" fill-rule="evenodd">
        <path d="M12.0208153,21.1208153 C17.0466065,21.1208153 21.1208153,17.0466065 21.1208153,12.0208153 C21.1208153,6.99502406 17.0466065,2.92081528 12.0208153,2.92081528 C6.99502406,2.92081528 2.92081528,6.99502406 2.92081528,12.0208153 C2.92081528,17.0466065 6.99502406,21.1208153 12.0208153,21.1208153 Z M12.0208153,19.9208153 C7.65776576,19.9208153 4.12081528,16.3838648 4.12081528,12.0208153 C4.12081528,7.65776576 7.65776576,4.12081528 12.0208153,4.12081528 C16.3838648,4.12081528 19.9208153,7.65776576 19.9208153,12.0208153 C19.9208153,16.3838648 16.3838648,19.9208153 12.0208153,19.9208153 Z" id="Oval" fill="#425968" fill-rule="nonzero" transform="translate(12.020815, 12.020815) rotate(-315.000000) translate(-12.020815, -12.020815) "></path>
        <polygon id="Path-43" fill="#425968" fill-rule="nonzero" points="14.8431912 8.41158864 8.29456809 14.9602118 9.14309623 15.8087399 15.6917194 9.26011677"></polygon>
        <polygon id="Path-43" fill="#425968" fill-rule="nonzero" points="15.6917194 14.9602118 9.14309623 8.41158864 8.29456809 9.26011677 14.8431912 15.8087399"></polygon>
    </g>
</svg>