<?xml version="1.0" encoding="UTF-8"?>
<svg width="24px" height="24px" viewBox="0 0 24 24" version="1.1" xmlns="http://www.w3.org/2000/svg" xmlns:xlink="http://www.w3.org/1999/xlink">
    <!-- Generator: Sketch 61.2 (89653) - https://sketch.com -->
    <title>Fobos/Icons/Black/euro</title>
    <desc>Created with Sketch.</desc>
    <g id="Fobos/Icons/Black/euro" stroke="none" stroke-width="1" fill="none" fill-rule="evenodd">
        <path d="M12.1,3 C17.1257912,3 21.2,7.07420878 21.2,12.1 C21.2,17.1257912 17.1257912,21.2 12.1,21.2 C7.07420878,21.2 3,17.1257912 3,12.1 C3,7.07420878 7.07420878,3 12.1,3 Z M12.1,4.2 C7.73695048,4.2 4.2,7.73695048 4.2,12.1 C4.2,16.4630495 7.73695048,20 12.1,20 C16.4630495,20 20,16.4630495 20,12.1 C20,7.73695048 16.4630495,4.2 12.1,4.2 Z M14.1616571,6.99644921 L14.1616571,9.24591617 L12.9616571,9.24591617 L12.9619481,8.19670084 L12.2978493,8.19644921 C10.7021313,8.19644921 9.32899769,9.14944591 8.7165503,10.5173374 L11.7759481,10.518271 L11.7759481,11.718271 L8.39609611,11.7183477 C8.38945115,11.7839443 8.3844227,11.8500185 8.38105123,11.9165299 L8.37594808,12.1183504 L8.37594808,12.2723273 C8.37594808,12.358286 8.37882649,12.4435725 8.3844922,12.5280955 L11.7759481,12.5276464 L11.7759481,13.7276464 L8.66762399,13.7284641 C9.21345378,15.0299841 10.4688981,15.9602728 11.9499755,16.0353488 L12.1438724,16.0402516 L12.9619481,16.0407008 L12.9616571,15.0540094 L14.1616571,15.0540094 L14.1616571,17.2402516 L12.1438724,17.2402516 C9.47236642,17.2402516 7.29337181,15.1315598 7.18053795,12.4878256 L7.17594808,12.2723273 L7.17594808,12.1183504 C7.17594808,9.36213449 9.35301141,7.11439895 12.0813393,7.00094257 L12.2978493,6.99644921 L14.1616571,6.99644921 Z" id="Combined-Shape" fill="#425968" fill-rule="nonzero"></path>
    </g>
</svg>