<?xml version="1.0" encoding="UTF-8"?>
<svg width="24px" height="24px" viewBox="0 0 24 24" version="1.1" xmlns="http://www.w3.org/2000/svg" xmlns:xlink="http://www.w3.org/1999/xlink">
    <title>Icons/Black/excel-real-icon</title>
    <g id="Icons/Black/excel-real-icon" stroke="none" stroke-width="1" fill="none" fill-rule="evenodd">
        <path d="M12.6,2.63113229 L12.6,4.80813229 L20.6,4.80836382 L20.6,19.0083638 L12.6,19.0081323 L12.6,21.1944905 L3.4,18.6784035 L3.4,5.03884193 L12.6,2.63113229 Z M11.4,4.185 L4.6,5.964 L4.6,17.762 L11.4,19.622 L11.4,4.185 Z M19.4,6.008 L12.6,6.008 L12.6,8.54513229 L14.3410218,8.54591254 L14.3410218,9.74591254 L12.6,9.74513229 L12.6,11.5451323 L14.3410218,11.5459125 L14.3410218,12.7459125 L12.6,12.7451323 L12.6,14.5451323 L14.3410218,14.5459125 L14.3410218,15.7459125 L12.6,15.7451323 L12.6,17.808 L19.4,17.808 L19.4,6.008 Z M18.3410218,14.5459125 L18.3410218,15.7459125 L15.4738536,15.7459125 L15.4738536,14.5459125 L18.3410218,14.5459125 Z M6.86958057,9.24439653 L7.928,10.7971323 L9.09222759,9.2917229 L10.04169,10.0255628 L8.639,11.8391323 L9.91733552,13.712314 L8.92601222,14.3885374 L7.868,12.8371323 L6.73425608,14.3048125 L5.78479363,13.5709725 L7.157,11.7941323 L5.87825728,9.92061995 L6.86958057,9.24439653 Z M18.3410218,11.5459125 L18.3410218,12.7459125 L15.4738536,12.7459125 L15.4738536,11.5459125 L18.3410218,11.5459125 Z M18.3410218,8.54591254 L18.3410218,9.74591254 L15.4738536,9.74591254 L15.4738536,8.54591254 L18.3410218,8.54591254 Z" id="Shape" fill="#425968" fill-rule="nonzero"></path>
    </g>
</svg>