<?xml version="1.0" encoding="UTF-8"?>
<svg width="24px" height="24px" viewBox="0 0 24 24" version="1.1" xmlns="http://www.w3.org/2000/svg" xmlns:xlink="http://www.w3.org/1999/xlink">
    <!-- Generator: Sketch 60 (88103) - https://sketch.com -->
    <title>Icons/Black/expand</title>
    <desc>Created with Sketch.</desc>
    <g id="Icons/Black/expand" stroke="none" stroke-width="1" fill="none" fill-rule="evenodd">
        <path d="M19,3.4 C19.8836556,3.4 20.6,4.1163444 20.6,5 L20.6,19 C20.6,19.8836556 19.8836556,20.6 19,20.6 L5,20.6 C4.1163444,20.6 3.4,19.8836556 3.4,19 L3.4,5 C3.4,4.1163444 4.1163444,3.4 5,3.4 L19,3.4 Z M19,4.6 L5,4.6 C4.7790861,4.6 4.6,4.7790861 4.6,5 L4.6,19 C4.6,19.2209139 4.7790861,19.4 5,19.4 L19,19.4 C19.2209139,19.4 19.4,19.2209139 19.4,19 L19.4,5 C19.4,4.7790861 19.2209139,4.6 19,4.6 Z M12.5969536,7.37496769 L12.5964934,11.4639677 L16.6864137,11.4644278 L16.6864137,12.6644278 L12.5964934,12.6639677 L12.5969536,16.753888 L11.3969536,16.753888 L11.3964934,12.6639677 L7.30749343,12.6644278 L7.30749343,11.4644278 L11.3964934,11.4639677 L11.3969536,7.37496769 L12.5969536,7.37496769 Z" id="Combined-Shape" fill="#425968" fill-rule="nonzero"></path>
    </g>
</svg>