<?xml version="1.0" encoding="UTF-8"?>
<svg width="24px" height="24px" viewBox="0 0 24 24" version="1.1" xmlns="http://www.w3.org/2000/svg" xmlns:xlink="http://www.w3.org/1999/xlink">
    <!-- Generator: Sketch 60 (88103) - https://sketch.com -->
    <title>Fobos/Icons/Black/fav</title>
    <desc>Created with Sketch.</desc>
    <g id="Fobos/Icons/Black/fav" stroke="none" stroke-width="1" fill="none" fill-rule="evenodd">
        <path d="M11.2826111,4.09785772 L9.25,8.215 L4.70630144,8.87582639 C4.53219182,8.901126 4.37127789,8.98311574 4.24847101,9.10910265 L4.17216474,9.19981164 C3.94380837,9.51594161 3.97530633,9.96001658 4.26293075,10.2403811 L7.55,13.445 L6.77485753,17.9712968 C6.74511605,18.1447029 6.77336779,18.3230774 6.85523905,18.4788058 L6.91221844,18.571493 C7.14081341,18.892469 7.57713106,19.0031052 7.93561709,18.814638 L12,16.678 L16.0643829,18.814638 C16.2201113,18.8965092 16.3984858,18.924761 16.5718919,18.8950195 L16.6697443,18.8719124 C17.0501839,18.7565757 17.294086,18.3732683 17.2251425,17.9712968 L16.449,13.445 L19.7370693,10.2403811 C19.8630562,10.1175742 19.9450459,9.95666028 19.9703455,9.78255066 L19.9787642,9.68234698 C19.986478,9.28488642 19.6973009,8.93447325 19.2936986,8.87582639 L14.749,8.215 L12.7173889,4.09785772 C12.6395247,3.94008764 12.5118227,3.81238562 12.3540526,3.73452143 C11.9578496,3.5389836 11.478149,3.7016548 11.2826111,4.09785772 Z M12,5.355 L13.7665653,8.93518304 L13.822949,9.03178331 C13.9481734,9.21548933 14.1455713,9.34036228 14.3689155,9.37281608 L18.319,9.946 L15.4607128,12.7330229 L15.386264,12.8164981 C15.2502457,12.9923619 15.1924838,13.2186864 15.2306355,13.441128 L15.905,17.375 L12.3722729,15.51785 L12.2698773,15.4728403 C12.0605889,15.3978241 11.8274921,15.4128273 11.6277271,15.51785 L8.094,17.375 L8.76936448,13.441128 L8.78052929,13.3298352 C8.78720028,13.1076088 8.70090049,12.8905569 8.53928717,12.7330229 L5.68,9.946 L9.63108454,9.37281608 C9.89165267,9.33495332 10.1169051,9.17129782 10.2334347,8.93518304 L12,5.355 Z" id="Star" fill="#425968" fill-rule="nonzero"></path>
    </g>
</svg>