<?xml version="1.0" encoding="UTF-8"?>
<svg width="24px" height="24px" viewBox="0 0 24 24" version="1.1" xmlns="http://www.w3.org/2000/svg" xmlns:xlink="http://www.w3.org/1999/xlink">
    <!-- Generator: Sketch 60 (88103) - https://sketch.com -->
    <title>Fobos/Icons/Black/fav-filled</title>
    <desc>Created with Sketch.</desc>
    <g id="Fobos/Icons/Black/fav-filled" stroke="none" stroke-width="1" fill="none" fill-rule="evenodd">
        <path d="M11.2826111,4.09785772 C11.478149,3.7016548 11.9578496,3.5389836 12.3540526,3.73452143 C12.5118227,3.81238562 12.6395247,3.94008764 12.7173889,4.09785772 L12.7173889,4.09785772 L14.749,8.215 L19.2936986,8.87582639 C19.6973009,8.93447325 19.986478,9.28488642 19.9787642,9.68234698 L19.9787642,9.68234698 L19.9703455,9.78255066 C19.9450459,9.95666028 19.8630562,10.1175742 19.7370693,10.2403811 L19.7370693,10.2403811 L16.449,13.445 L17.2251425,17.9712968 C17.294086,18.3732683 17.0501839,18.7565757 16.6697443,18.8719124 L16.6697443,18.8719124 L16.5718919,18.8950195 C16.3984858,18.924761 16.2201113,18.8965092 16.0643829,18.814638 L16.0643829,18.814638 L12,16.678 L7.93561709,18.814638 C7.57713106,19.0031052 7.14081341,18.892469 6.91221844,18.571493 L6.91221844,18.571493 L6.85523905,18.4788058 C6.77336779,18.3230774 6.74511605,18.1447029 6.77485753,17.9712968 L6.77485753,17.9712968 L7.55,13.445 L4.26293075,10.2403811 C3.97530633,9.96001658 3.94380837,9.51594161 4.17216474,9.19981164 L4.17216474,9.19981164 L4.24847101,9.10910265 C4.37127789,8.98311574 4.53219182,8.901126 4.70630144,8.87582639 L4.70630144,8.87582639 L9.25,8.215 Z" id="Combined-Shape" fill="#425968" fill-rule="nonzero"></path>
    </g>
</svg>