<?xml version="1.0" encoding="UTF-8"?>
<svg width="24px" height="24px" viewBox="0 0 24 24" version="1.1" xmlns="http://www.w3.org/2000/svg" xmlns:xlink="http://www.w3.org/1999/xlink">
    <!-- Generator: Sketch 60 (88103) - https://sketch.com -->
    <title>Icons/Black/info</title>
    <desc>Created with Sketch.</desc>
    <g id="Icons/Black/info" stroke="none" stroke-width="1" fill="none" fill-rule="evenodd">
        <path d="M11.9786128,2.8452158 C17.004404,2.8452158 21.0786128,6.91942458 21.0786128,11.9452158 C21.0786128,16.971007 17.004404,21.0452158 11.9786128,21.0452158 C6.95282156,21.0452158 2.87861278,16.971007 2.87861278,11.9452158 C2.87861278,6.91942458 6.95282156,2.8452158 11.9786128,2.8452158 Z M11.9786128,4.0452158 C7.61556326,4.0452158 4.07861278,7.58216628 4.07861278,11.9452158 C4.07861278,16.3082653 7.61556326,19.8452158 11.9786128,19.8452158 C16.3416623,19.8452158 19.8786128,16.3082653 19.8786128,11.9452158 C19.8786128,7.58216628 16.3416623,4.0452158 11.9786128,4.0452158 Z M13.0591776,9.80361091 L13.0591776,16.8192783 L11.8591776,16.8192783 L11.8591776,11.0036109 L10.0411366,11.0036109 L10.0411366,9.80361091 L13.0591776,9.80361091 Z M12.0725631,6.84153809 C12.6248478,6.84153809 13.0725631,7.28925334 13.0725631,7.84153809 C13.0725631,8.39382284 12.6248478,8.84153809 12.0725631,8.84153809 C11.5202783,8.84153809 11.0725631,8.39382284 11.0725631,7.84153809 C11.0725631,7.28925334 11.5202783,6.84153809 12.0725631,6.84153809 Z" id="Combined-Shape" fill="#425968" fill-rule="nonzero"></path>
    </g>
</svg>