<?xml version="1.0" encoding="UTF-8"?>
<svg width="18px" height="18px" viewBox="0 0 18 18" version="1.1" xmlns="http://www.w3.org/2000/svg" xmlns:xlink="http://www.w3.org/1999/xlink">
    <title>Icons/Black/xxxhdpi/user</title>
    <g id="Symbols" stroke="none" stroke-width="1" fill="none" fill-rule="evenodd">
        <g id="Fobos/Components/NavigationBar" transform="translate(-1001.000000, -33.000000)" fill="#425968" fill-rule="nonzero">
            <g id="Combined-Shape" transform="translate(998.000000, 30.000000)">
                <path d="M12,3.4 C16.7496488,3.4 20.6,7.25035115 20.6,12 C20.6,16.7496488 16.7496488,20.6 12,20.6 C11.9963323,20.6 11.9926652,20.5999977 11.9889986,20.5999931 L11.9263194,20.6320903 L11.9100835,20.5995397 C11.8771542,20.5992023 11.8442691,20.59868 11.8114295,20.5979735 L11.7945067,20.6320903 L11.7227514,20.5956156 C7.1014156,20.4492526 3.4,16.6568823 3.4,12 C3.4,7.25035115 7.25035115,3.4 12,3.4 Z M19.3790657,12.5608389 L17.304624,12.5603249 C17.1582329,15.0866763 16.0276115,17.3996635 14.2300438,19.0578777 C17.056396,18.1657809 19.1495903,15.6231234 19.3790657,12.5608389 Z M11.4,12.56 L7.61850652,12.5600919 C7.79463222,15.2189307 9.21659434,17.6004894 11.399423,19.0299456 L11.4,12.56 Z M6.41620208,12.5603249 L4.62093433,12.5608389 C4.83819351,15.4601023 6.72602286,17.893591 9.32474507,18.9016276 C7.6237762,17.2554508 6.55803604,15.0080314 6.41620208,12.5603249 Z M16.1023196,12.5600919 L12.6,12.56 L12.6011158,18.8386144 C14.6252457,17.3933629 15.9338335,15.103601 16.1023196,12.5600919 Z M9.32558458,5.0983504 L9.22624495,5.13739946 C6.70191846,6.15868411 4.86949274,8.53234941 4.62728395,11.3600792 L6.42110241,11.3606233 C6.58085112,8.94623093 7.63962967,6.72863233 9.32558458,5.0983504 Z M7.6241298,11.3605413 L11.4,11.36 L11.3994545,4.9703192 C9.23331217,6.38920027 7.82261547,8.73805191 7.6241298,11.3605413 Z M12.6010934,5.16168373 L12.6,11.36 L16.0966963,11.3605413 C15.9068878,8.85269909 14.6085399,6.59509241 12.6010934,5.16168373 Z M14.2323169,4.9426541 L14.2576155,4.96787101 C16.0234941,6.60928504 17.1356711,8.88118398 17.2997237,11.3606233 L19.3727161,11.3600792 C19.1135074,8.33388001 17.0330235,5.8277208 14.2323169,4.9426541 Z"></path>
            </g>
        </g>
    </g>
</svg>