<?xml version="1.0" encoding="UTF-8"?>
<svg width="24px" height="24px" viewBox="0 0 24 24" version="1.1" xmlns="http://www.w3.org/2000/svg" xmlns:xlink="http://www.w3.org/1999/xlink">
    <!-- Generator: Sketch 60 (88103) - https://sketch.com -->
    <title>Fobos/Icons/Black/pending</title>
    <desc>Created with Sketch.</desc>
    <g id="Fobos/Icons/Black/pending" stroke="none" stroke-width="1" fill="none" fill-rule="evenodd">
        <path d="M19.5899503,2.03411907 L4.07614425,2.03411907 L4.09550636,3.09553555 C4.19098024,5.70339935 5.42478519,7.99399825 7.75221037,9.94821679 L8.03659031,10.1809372 L8.18368826,10.3051948 C9.28904303,11.2927246 9.43648051,13.0027192 8.49476885,14.1838775 C8.37204521,14.3378058 8.23367214,14.4785768 8.08187493,14.6039268 C5.44230008,16.7836148 4.08995035,19.1839662 4.08995035,21.7841191 L4.08995035,22.5341191 L19.5899503,22.5341191 L19.5899503,21.7841191 C19.5899503,19.1839662 18.2376006,16.7836148 15.5980258,14.6039268 C15.4462286,14.4785768 15.3078555,14.3378058 15.1851318,14.1838775 C14.205883,12.9556375 14.4077302,11.1661142 15.6359702,10.1868653 L15.9203023,9.95434001 C18.3528975,7.9118958 19.5899503,5.51043871 19.5899503,2.78411907 L19.5899503,2.03411907 Z M18.049,3.534 L18.0417625,3.61901736 C17.8166628,5.53816839 16.8013744,7.2559894 14.9631391,8.79946053 L14.6935353,9.01993453 C12.8248834,10.5096939 12.5165856,13.2429801 14.012273,15.1189722 C14.1997189,15.3540795 14.4110675,15.5690907 14.6429199,15.760548 L14.9155678,15.9908271 C16.7840962,17.6056666 17.8130865,19.2813075 18.041,21.034 L5.638,21.034 C5.87767376,19.198031 6.99561973,17.4462477 9.03698084,15.760548 C9.26883322,15.5690907 9.4801818,15.3540795 9.66762771,15.1189722 C11.1061574,13.3146711 10.881006,10.7033419 9.16697829,9.17263138 L8.99519637,9.02727239 L8.70937353,8.79333731 L8.45275513,8.57194407 C6.77914928,7.08778885 5.84879878,5.43933429 5.63691431,3.60896632 L5.629,3.534 L18.049,3.534 Z" id="Combined-Shape" fill="#425968" fill-rule="nonzero"></path>
    </g>
</svg>