<?xml version="1.0" encoding="UTF-8"?>
<svg width="24px" height="24px" viewBox="0 0 24 24" version="1.1" xmlns="http://www.w3.org/2000/svg" xmlns:xlink="http://www.w3.org/1999/xlink">
    <!-- Generator: Sketch 60 (88103) - https://sketch.com -->
    <title>Fobos/Icons/Black/scoring</title>
    <desc>Created with Sketch.</desc>
    <g id="Fobos/Icons/Black/scoring" stroke="none" stroke-width="1" fill="none" fill-rule="evenodd">
        <path d="M18.3228633,4.33869902 L18.3228633,5.08869902 C18.3228633,5.17208874 18.3223574,5.25555163 18.3213485,5.33906771 L19.6758986,5.33869902 C20.7528539,5.33869902 21.6258986,6.21174376 21.6258986,7.28869902 C21.6258986,7.74839418 21.4635805,8.19135442 21.1706831,8.54095297 L21.0547876,8.66752643 L17.18,12.541 L17.1804947,16.088699 L15.6804947,16.088699 L15.6806973,14.7610826 C14.8815979,15.8358084 13.9201609,16.567179 12.8227803,16.7768655 L12.822,19.838699 L15.0690985,19.838699 L15.0690985,21.338699 L9.06909849,21.338699 L9.06909849,19.838699 L11.322,19.838699 L11.3223017,16.7344171 C10.1080324,16.4307325 9.0474504,15.4834431 8.19015938,14.1522872 L8.18900466,15.75 L6.68900466,15.75 L6.68986799,12.978301 L2.49095662,8.24371265 L2.37904834,8.1052599 C2.13372202,7.77167438 2,7.36716038 2,6.95 C2,5.87304474 2.87304474,5 3.95,5 L3.95,5 L5.822,4.99969902 L5.82286334,4.33869902 L18.3228633,4.33869902 Z M16.807,5.838 L7.341,5.838 L7.3606816,6.19437173 C7.65828487,10.6126464 9.67340911,15.1495287 12.0200601,15.3329445 L12.0200601,15.3329445 L12.167209,15.338699 C14.5973079,15.338699 16.5858303,10.6108055 16.8031601,5.92975153 L16.8031601,5.92975153 L16.807,5.838 Z M5.87578182,6.49983019 L3.95,6.5 L3.86911193,6.5072501 C3.65918764,6.54535247 3.5,6.7290861 3.5,6.95 C3.5,7.06002032 3.54030554,7.16622886 3.61329768,7.24854907 L3.61329768,7.24854907 L6.63701655,10.6583803 C6.24188863,9.34286974 5.98121576,7.92040961 5.87578182,6.49983019 Z M19.6758986,6.83869902 L18.2499044,6.83896726 C18.1659048,7.85184776 18.0103886,8.85497352 17.7886413,9.81263343 L19.9941038,7.60688996 C20.0784908,7.52249917 20.1258986,7.40804295 20.1258986,7.28869902 C20.1258986,7.06778512 19.966711,6.88405148 19.7567867,6.84594912 L19.6758986,6.83869902 Z" id="Combined-Shape" fill="#425968" fill-rule="nonzero"></path>
    </g>
</svg>