<?xml version="1.0" encoding="UTF-8"?>
<svg width="24px" height="24px" viewBox="0 0 24 24" version="1.1" xmlns="http://www.w3.org/2000/svg" xmlns:xlink="http://www.w3.org/1999/xlink">
    <!-- Generator: Sketch 60 (88103) - https://sketch.com -->
    <title>Icons/Black/search</title>
    <desc>Created with Sketch.</desc>
    <g id="Icons/Black/search" stroke="none" stroke-width="1" fill="none" fill-rule="evenodd">
        <path d="M11,4.4 C14.6450793,4.4 17.6,7.35492065 17.6,11 C17.6,12.6846643 16.9688122,14.2219069 15.9300211,15.388143 L18.4508869,18.1365804 L17.5664649,18.9476278 L15.0542612,16.2083516 C13.9354968,17.0804616 12.5284207,17.6 11,17.6 C7.35492065,17.6 4.4,14.6450793 4.4,11 C4.4,7.35492065 7.35492065,4.4 11,4.4 Z M11,5.6 C8.01766235,5.6 5.6,8.01766235 5.6,11 C5.6,13.9823376 8.01766235,16.4 11,16.4 C13.9823376,16.4 16.4,13.9823376 16.4,11 C16.4,8.01766235 13.9823376,5.6 11,5.6 Z" id="Combined-Shape" fill="#425968" fill-rule="nonzero"></path>
    </g>
</svg>