<?xml version="1.0" encoding="UTF-8"?>
<svg width="24px" height="24px" viewBox="0 0 24 24" version="1.1" xmlns="http://www.w3.org/2000/svg" xmlns:xlink="http://www.w3.org/1999/xlink">
    <!-- Generator: Sketch 60 (88103) - https://sketch.com -->
    <title>Icons/Black/success</title>
    <desc>Created with Sketch.</desc>
    <g id="Icons/Black/success" stroke="none" stroke-width="1" fill="none" fill-rule="evenodd">
        <path d="M11.7849217,2.67996112 C16.810713,2.67996112 20.8849217,6.75416989 20.8849217,11.7799611 C20.8849217,16.8057523 16.810713,20.8799611 11.7849217,20.8799611 C6.75913052,20.8799611 2.68492175,16.8057523 2.68492175,11.7799611 C2.68492175,6.75416989 6.75913052,2.67996112 11.7849217,2.67996112 Z M11.7849217,3.87996112 C7.42187222,3.87996112 3.88492175,7.41691159 3.88492175,11.7799611 C3.88492175,16.1430106 7.42187222,19.6799611 11.7849217,19.6799611 C16.1479713,19.6799611 19.6849217,16.1430106 19.6849217,11.7799611 C19.6849217,7.41691159 16.1479713,3.87996112 11.7849217,3.87996112 Z M14.8808049,8.6767647 L15.6875694,9.56509519 L10.2657742,14.4890643 L8.24257471,12.1033898 L9.15777662,11.327242 L10.3780216,12.7661051 L14.8808049,8.6767647 Z" id="Combined-Shape" fill="#425968" fill-rule="nonzero"></path>
    </g>
</svg>