<?xml version="1.0" encoding="UTF-8"?>
<svg width="24px" height="24px" viewBox="0 0 24 24" version="1.1" xmlns="http://www.w3.org/2000/svg" xmlns:xlink="http://www.w3.org/1999/xlink">
    <!-- Generator: Sketch 64 (93537) - https://sketch.com -->
    <title>Icons/Black/assign-proposal</title>
    <desc>Created with Sketch.</desc>
    <g id="Icons/Black/assign-proposal" stroke="none" stroke-width="1" fill="none" fill-rule="evenodd">
        <path d="M11.7608177,12.972101 C12.9925181,12.972101 13.8975842,13.1561646 14.4760161,13.5242918 L14.4760161,13.5242918 L13.9881464,14.6207937 C13.0251074,14.3216652 12.2826645,14.172101 11.7608177,14.172101 C8.77083741,14.172101 6.36081765,16.4442894 6.36081765,19.2289552 L6.36081765,19.2289552 L5.16081765,19.2289552 C5.16081765,15.7652324 8.12346995,12.972101 11.7608177,12.972101 Z M11.7608177,4.47521012 C13.7490428,4.47521012 15.3608177,6.08698502 15.3608177,8.07521012 C15.3608177,10.0634352 13.7490428,11.6752101 11.7608177,11.6752101 C9.77259256,11.6752101 8.16081765,10.0634352 8.16081765,8.07521012 C8.16081765,6.08698502 9.77259256,4.47521012 11.7608177,4.47521012 Z M11.7608177,5.67521012 C10.4353343,5.67521012 9.36081765,6.74972672 9.36081765,8.07521012 C9.36081765,9.40069352 10.4353343,10.4752101 11.7608177,10.4752101 C13.0863011,10.4752101 14.1608177,9.40069352 14.1608177,8.07521012 C14.1608177,6.74972672 13.0863011,5.67521012 11.7608177,5.67521012 Z" id="Combined-Shape" fill="#425968" fill-rule="nonzero"></path>
        <polygon id="Path" fill="#425968" fill-rule="nonzero" points="12.9237112 17.1468857 12 17.9128868 13.8833438 20.013034 18.5254644 15.8792667 17.708831 15 13.9967881 18.2699422"></polygon>
    </g>
</svg>