<?xml version="1.0" encoding="UTF-8"?>
<svg width="24px" height="24px" viewBox="0 0 24 24" version="1.1" xmlns="http://www.w3.org/2000/svg" xmlns:xlink="http://www.w3.org/1999/xlink">
    <!-- Generator: Sketch 60 (88103) - https://sketch.com -->
    <title>Icons/Black/warning</title>
    <desc>Created with Sketch.</desc>
    <g id="Icons/Black/warning" stroke="none" stroke-width="1" fill="none" fill-rule="evenodd">
        <path d="M11.9924004,2.6835191 C17.0181916,2.6835191 21.0924004,6.75772787 21.0924004,11.7835191 C21.0924004,16.8093103 17.0181916,20.8835191 11.9924004,20.8835191 C6.96660913,20.8835191 2.89240036,16.8093103 2.89240036,11.7835191 C2.89240036,6.75772787 6.96660913,2.6835191 11.9924004,2.6835191 Z M11.9924004,3.8835191 C7.62935083,3.8835191 4.09240036,7.42046957 4.09240036,11.7835191 C4.09240036,16.1465686 7.62935083,19.6835191 11.9924004,19.6835191 C16.3554499,19.6835191 19.8924004,16.1465686 19.8924004,11.7835191 C19.8924004,7.42046957 16.3554499,3.8835191 11.9924004,3.8835191 Z M11.997706,14.8452988 C12.5499907,14.8452988 12.997706,15.293014 12.997706,15.8452988 C12.997706,16.3975835 12.5499907,16.8452988 11.997706,16.8452988 C11.4454212,16.8452988 10.997706,16.3975835 10.997706,15.8452988 C10.997706,15.293014 11.4454212,14.8452988 11.997706,14.8452988 Z M12.5924004,6.7835191 L12.5924004,13.7835191 L11.3924004,13.7835191 L11.3924004,6.7835191 L12.5924004,6.7835191 Z" id="Combined-Shape" fill="#425968"></path>
    </g>
</svg>